HIERARCHY
ROOT Hips
{
	OFFSET 0.000000 0.000000 0.000000
	CHANNELS 6 Xposition Yposition Zposition Zrotation Yrotation Xrotation 
	JOINT LHipJoint
	{
		OFFSET 0.000000 0.000000 0.000000
		CHANNELS 3 Zrotation Yrotation Xrotation
		JOINT LeftUpLeg
		{
			OFFSET 1.363060 -1.794630 0.839290
			CHANNELS 3 Zrotation Yrotation Xrotation
			JOINT LeftLeg
			{
				OFFSET 2.448110 -6.726130 0.000000
				CHANNELS 3 Zrotation Yrotation Xrotation
				JOINT LeftFoot
				{
					OFFSET 2.562200 -7.039590 0.000000
					CHANNELS 3 Zrotation Yrotation Xrotation
					JOINT LeftToeBase
					{
						OFFSET 0.157640 -0.433110 2.322550
						CHANNELS 3 Zrotation Yrotation Xrotation
						End Site
						{
							OFFSET 0.000000 0.000000 0.000000
						}
					}
				}
			}
		}
	}
	JOINT RHipJoint
	{
		OFFSET 0.000000 0.000000 0.000000
		CHANNELS 3 Zrotation Yrotation Xrotation
		JOINT RightUpLeg
		{
			OFFSET -1.305520 -1.794630 0.839290
			CHANNELS 3 Zrotation Yrotation Xrotation
			JOINT RightLeg
			{
				OFFSET -2.542530 -6.985550 0.000000
				CHANNELS 3 Zrotation Yrotation Xrotation
				JOINT RightFoot
				{
					OFFSET -2.568260 -7.056230 0.000000
					CHANNELS 3 Zrotation Yrotation Xrotation
					JOINT RightToeBase
					{
						OFFSET -0.164730 -0.452590 2.363150
						CHANNELS 3 Zrotation Yrotation Xrotation
						End Site
						{
							OFFSET 0.000000 0.000000 0.000000
						}
					}
				}
			}
		}
	}
}
MOTION
Frames: 22
Frame Time: 0.008333
4.007436 17.029991 0.938036 3.264367 30.852746 14.973355 -12.400670 3.677495 -2.997533 -0.938183 20.554411 -6.100997 -0.978140 1.820900 28.783253 1.316694 7.603527 14.245775 2.284900 0.000000 -81.516900 8.202592 -0.077002 0.486635 15.749074 -6.701591 -32.185108 2.652719 1.445730 3.132115 -3.576060 -17.274250 -0.649591 -4.100000 0.000000 -27.279400
4.059991 17.044409 1.058361 2.976401 30.398301 14.744230 -12.572720 3.633611 -2.921846 -0.385509 20.400659 -6.657525 -0.826842 1.921375 30.427303 1.414308 7.561780 16.067729 2.399599 0.000000 -81.434800 8.047263 -0.198866 0.387446 16.235899 -6.749487 -31.957615 2.732213 1.350652 3.941975 -3.487374 -16.864598 -0.755931 -3.961600 0.000000 -26.949300
4.107146 17.059861 1.177712 2.738649 29.910875 14.539206 -12.710730 3.576083 -2.859189 0.077806 20.213266 -7.255649 -0.683323 2.015634 32.140893 1.528061 7.575273 17.957214 2.534900 0.000000 -80.583400 7.917912 -0.303582 0.287969 16.654292 -6.781123 -31.691397 2.800676 1.259456 4.728279 -3.397200 -16.395021 -1.007105 -3.764800 -0.000000 -26.483300
4.148888 17.075857 1.296161 2.555999 29.397112 14.363485 -12.813218 3.506281 -2.809334 0.444152 19.989258 -7.894167 -0.552886 2.103401 33.912689 1.651583 7.633528 19.839120 2.686299 -0.000000 -78.901300 7.816425 -0.389414 0.194835 16.990319 -6.779542 -31.375507 2.854952 1.177508 5.454803 -3.312265 -15.905106 -1.380519 -3.529700 0.000000 -25.874500
4.185495 17.092093 1.413789 2.428087 28.864013 14.219909 -12.881646 3.426139 -2.771009 0.713095 19.727076 -8.570793 -0.438658 2.185017 35.718693 1.778869 7.734146 21.651547 2.853700 -0.000000 -76.552000 7.741970 -0.456165 0.113453 17.239426 -6.731196 -31.001346 2.893495 1.109692 6.087393 -3.238516 -15.433919 -1.845420 -3.277300 -0.000000 -25.129100
4.217338 17.108311 1.530640 2.354735 28.319678 14.109298 -12.917504 3.338586 -2.742429 0.882978 19.424903 -9.284641 -0.341508 2.261884 37.539174 1.903680 7.879591 23.324351 3.037600 0.000000 -73.912301 7.693890 -0.504424 0.047170 17.399931 -6.633430 -30.569618 2.915802 1.058273 6.606852 -3.179521 -15.008625 -2.371026 -3.023600 0.000000 -24.274600
4.245009 17.124361 1.646775 2.332918 27.771896 14.030075 -12.923875 3.247786 -2.723392 0.958635 19.089917 -10.039902 -0.260990 2.337990 39.373453 2.016431 8.041405 24.757582 3.218699 0.000000 -70.637600 7.670479 -0.536240 -0.002096 17.475553 -6.489886 -30.086600 2.922383 1.023441 7.005710 -3.136731 -14.647050 -2.924866 -2.781201 0.000000 -23.358200
4.269225 17.140264 1.762134 2.355832 27.227010 13.977736 -12.905612 3.156016 -2.711678 0.948526 18.723986 -10.833910 -0.193141 2.414840 41.196028 2.114847 8.231077 25.920413 3.400600 0.000000 -67.284101 7.668444 -0.554083 -0.034823 17.475565 -6.306571 -29.558197 2.914486 1.004406 7.282416 -3.110113 -14.360351 -3.475843 -2.559300 0.000000 -22.431500
4.290762 17.156129 1.876682 2.417193 26.688933 13.947204 -12.867442 3.065524 -2.705025 0.860533 18.327947 -11.661569 -0.133575 2.493604 42.986041 2.197270 8.452792 26.786046 3.582700 0.000000 -64.079800 7.684816 -0.560622 -0.053314 17.409351 -6.094545 -28.992938 2.893763 0.998625 7.446613 -3.097394 -14.147600 -3.997826 -2.363000 0.000000 -21.549100
4.310368 17.172127 1.990308 2.509156 26.160212 13.931681 -12.814296 2.977728 -2.702930 0.707005 17.909974 -12.520314 -0.078342 2.575794 44.733889 2.262117 8.700887 27.323634 3.756901 0.000000 -61.007400 7.716261 -0.558725 -0.060087 17.287681 -5.863138 -28.398593 2.862127 1.003037 7.513185 -3.095485 -14.001941 -4.471435 -2.194000 -0.000001 -20.756000
4.328619 17.188438 2.102909 2.625381 25.640527 13.925303 -12.750155 2.892595 -2.703248 0.497476 17.469881 -13.400854 -0.023851 2.660167 46.416544 2.312319 8.991803 27.551916 3.930900 0.000000 -58.365600 7.759993 -0.550525 -0.058890 17.120251 -5.621760 -27.782380 2.821607 1.014184 7.501619 -3.100416 -13.909589 -4.885608 -2.051600 0.000000 -20.081300
4.346055 17.205193 2.214395 2.759275 25.127686 13.921851 -12.678403 2.809564 -2.704917 0.242444 17.011129 -14.293415 0.031899 2.745182 48.015080 2.350849 9.335576 27.494427 4.108799 0.000000 -56.274799 7.813401 -0.537852 -0.053202 16.915472 -5.376852 -27.148504 2.774279 1.028886 7.431993 -3.108152 -13.853688 -5.237299 -1.932600 -0.000000 -19.532100
4.363042 17.222520 2.324639 2.905071 24.618088 13.915783 -12.601522 2.727732 -2.707367 -0.047344 16.537782 -15.187413 0.089533 2.828980 49.511945 2.380770 9.738773 27.180527 4.293200 -0.000000 -54.746600 7.874140 -0.522104 -0.045923 16.681139 -5.131423 -26.499074 2.722191 1.044597 7.322579 -3.115107 -13.816666 -5.530863 -1.832600 0.000000 -19.095500
4.379788 17.240418 2.433613 3.057491 24.107509 13.902600 -12.521125 2.646198 -2.711227 -0.360604 16.057608 -16.074193 0.148513 2.910194 50.894801 2.404154 10.198897 26.632914 4.480000 0.000000 -53.583600 7.940214 -0.504384 -0.039006 16.424609 -4.884849 -25.833841 2.667277 1.059594 7.187748 -3.118387 -13.782179 -5.775554 -1.746600 0.000000 -18.742900
4.396367 17.258818 2.541247 3.212628 23.590479 13.879496 -12.437808 2.563698 -2.715855 -0.689169 15.573069 -16.942697 0.207428 2.986067 52.144262 2.425052 10.722601 25.906510 4.673700 -0.000000 -52.847600 8.010256 -0.485104 -0.033830 16.151118 -4.634854 -25.151467 2.611115 1.073024 7.036983 -3.116019 -13.736864 -5.983631 -1.669300 0.000000 -18.436800
4.412747 17.277551 2.647598 3.367251 23.062635 13.845291 -12.351688 2.479360 -2.721168 -1.025068 15.088754 -17.785674 0.264417 3.054706 53.248039 2.445985 11.305980 25.043074 4.872000 -0.000000 -52.415400 8.083059 -0.464695 -0.030380 15.865849 -4.376399 -24.449478 2.554974 1.084975 6.873729 -3.107143 -13.672070 -6.167702 -1.596300 -0.000000 -18.135300
4.428852 17.296357 2.752743 3.518925 22.519322 13.800632 -12.262391 2.392594 -2.726747 -1.362160 14.608105 -18.598949 0.317469 3.114483 54.196713 2.468978 11.941409 24.084347 5.071400 -0.000000 -52.167500 8.157802 -0.443344 -0.027729 15.573340 -4.103768 -23.726707 2.499836 1.096189 6.696799 -3.091671 -13.583126 -6.338629 -1.524300 0.000000 -17.799500
4.444540 17.314959 2.856792 3.666068 21.957252 13.748074 -12.169277 2.303057 -2.731680 -1.696337 14.132417 -19.380178 0.364759 3.163896 54.983220 2.495809 12.620593 23.073442 5.269700 0.000000 -52.060100 8.234025 -0.421138 -0.024553 15.277349 -3.812362 -22.983084 2.446373 1.107843 6.501097 -3.070173 -13.469286 -6.504371 -1.451400 0.000000 -17.399499
4.459722 17.333038 2.959910 3.807456 21.373665 13.691105 -12.071898 2.210918 -2.734837 -2.024240 13.663101 -20.131620 0.404838 3.202339 55.606875 2.526630 13.327435 22.035616 5.459900 0.000000 -51.960199 8.311191 -0.398388 -0.018743 14.981970 -3.498137 -22.221052 2.395101 1.121287 6.279808 -3.043568 -13.332731 -6.668772 -1.377301 -0.000000 -16.917101
4.474374 17.350317 3.062240 3.942041 20.766507 13.634077 -11.969975 2.116504 -2.734533 -2.344313 13.198973 -20.856763 0.436691 3.229341 56.068747 2.561259 14.046138 20.993941 5.636299 -0.000000 -51.830900 8.388906 -0.375468 -0.008576 14.690644 -3.160338 -21.444982 2.346419 1.137710 6.025823 -3.012741 -13.177072 -6.831264 -1.302900 0.000000 -16.351100
4.488480 17.366491 3.163961 4.068902 20.135138 13.581007 -11.863838 2.020703 -2.729490 -2.654559 12.740779 -21.562546 0.459696 3.245675 56.377542 2.597270 14.750663 19.941234 5.784700 -0.000000 -51.469500 8.466460 -0.353180 0.007773 14.407221 -2.799887 -20.660853 2.300755 1.157971 5.733912 -2.978292 -13.005740 -6.988033 -1.230100 -0.000000 -15.717100
4.502136 17.381406 3.265239 4.187576 19.478424 13.535809 -11.753656 1.924037 -2.717353 -2.954835 12.283710 -22.253079 0.473421 3.251185 56.535611 2.633847 15.427279 18.890725 5.901400 0.000000 -50.993199 8.543571 -0.332025 0.030678 14.134368 -2.422054 -19.876427 2.258516 1.182272 5.402366 -2.940119 -12.820115 -7.132107 -1.161100 -0.000000 -15.048900
